<?xml version="1.0" encoding="UTF-8" standalone="no"?>
<svg width="96mm" height="96mm" viewBox="0 0 96 95.999998" version="1.1" id="svg412" inkscape:version="1.2.2 (b0a8486541, 2022-12-01)" sodipodi:docname="drawing.svg" inkscape:export-filename="drawing.png" inkscape:export-xdpi="264.58331" inkscape:export-ydpi="264.58331" xml:space="preserve" xmlns:inkscape="http://www.inkscape.org/namespaces/inkscape" xmlns:sodipodi="http://sodipodi.sourceforge.net/DTD/sodipodi-0.dtd" xmlns="http://www.w3.org/2000/svg" xmlns:svg="http://www.w3.org/2000/svg" xmlns:rdf="http://www.w3.org/1999/02/22-rdf-syntax-ns#" xmlns:cc="http://creativecommons.org/ns#" xmlns:dc="http://purl.org/dc/elements/1.1/"><sodipodi:namedview id="namedview414" pagecolor="#ffffff" bordercolor="#666666" borderopacity="1.0" inkscape:showpageshadow="2" inkscape:pageopacity="0.0" inkscape:pagecheckerboard="0" inkscape:deskcolor="#d1d1d1" inkscape:document-units="mm" showgrid="false" inkscape:zoom="1.6288411" inkscape:cx="119.71702" inkscape:cy="172.82225" inkscape:window-width="1861" inkscape:window-height="1050" inkscape:window-x="59" inkscape:window-y="293" inkscape:window-maximized="1" inkscape:current-layer="layer1" /><defs id="defs409" /><g inkscape:label="Layer 1" inkscape:groupmode="layer" id="layer1" transform="translate(-114.22852,-140.89062)"><g id="g889" transform="matrix(1.1250093,0,0,1.2279748,-6.522875,4.6992014)" style="fill:#e6e6e6"><path id="path779" style="font-weight:normal;font-size:96px;line-height:125%;font-family:'Flipside BRK';-inkscape-font-specification:'Flipside BRK, Normal';text-align:center;letter-spacing:0px;word-spacing:0px;text-anchor:middle;white-space:pre;fill:#e6e6e6;stroke-width:0.264583px;image-rendering:crisp-edges" d="m 124.45703,141.04102 c -3.03613,0.46831 -6.11457,2.28851 -7.125,5.33203 c -0.24389,0.69828 -0.382,1.42583 -0.54101,2.14648 c -0.85417,0 -1.70834,0 -2.5625,0 c 0,0.98698 0,1.97396 0,2.96094 c 0.86002,0 1.72005,0 2.58007,0 c 0.30148,2.76354 1.98349,5.41531 4.58536,6.52731 c 1.07647,0.5105 2.23861,0.82613 3.4166,0.99027 c 0,-0.9974 0,-1.99479 0,-2.99219 c -2.356,-0.31692 -4.58273,-2.08842 -4.93309,-4.52204 c -0.55543,-2.52336 0.33786,-5.56965 2.77354,-6.77842 c 0.67163,-0.36703 1.40853,-0.60526 2.15955,-0.74446 c 0,-0.98959 0,-1.97917 0,-2.96875 c -0.11784,0.0163 -0.23568,0.0326 -0.35352,0.0488 z" /><path id="path781" style="font-weight:normal;font-size:96px;line-height:125%;font-family:'Flipside BRK';-inkscape-font-specification:'Flipside BRK, Normal';text-align:center;letter-spacing:0px;word-spacing:0px;text-anchor:middle;white-space:pre;fill:#e6e6e6;stroke-width:0.264583px;image-rendering:crisp-edges" d="m 130.12109,143.86133 h 7.00196 v 12.27734 H 131.602 l -1.42622,2.96289 h 17.4961 c 0,-0.98763 -10e-6,-1.97526 0,-2.96289 h -7.62305 c 0.0137,-4.09244 0.0254,-8.1849 0.0391,-12.27734 l 7.58399,-3.3e-4 c 0,-0.98763 -1e-5,-1.97493 0,-2.96256 H 131.602 l -1.481,2.96289 z" sodipodi:nodetypes="cccccccccccccc" /><path id="path783" style="font-weight:normal;font-size:96px;line-height:125%;font-family:'Flipside BRK';-inkscape-font-specification:'Flipside BRK, Normal';text-align:center;letter-spacing:0px;word-spacing:0px;text-anchor:middle;white-space:pre;fill:#e6e6e6;stroke-width:0.264583px;image-rendering:crisp-edges" d="m 152.56836,143.861 h 5.47067 v -2.97038 c -0.13672,6.6e-4 -3.85331,10e-4 -3.99003,0.002 c -0.58296,1.00972 -0.88444,1.93573 -1.48064,2.96838 z m 14.83789,-2.88252 c -0.24027,3.50477 -2.91783,6.84147 -6.48028,7.34696 c -2.03129,0.52828 -5.71858,0.79405 -8.59785,0.79405 c 0,3.32735 10e-6,6.65469 0,9.98203 h 2.9629 v -7.61718 c 2.72165,-0.0254 5.62306,-0.21107 8.09302,1.15073 c 2.38775,1.22855 4.01328,3.79049 4.12768,6.46645 h 2.91016 c -0.33007,-3.29481 -1.81221,-6.58097 -4.48438,-8.62304 c -0.57671,-0.61974 0.21508,-1.26888 0.73828,-1.56641 c 2.23026,-2.06209 3.46664,-5.02287 3.76563,-8.01367 h -3.02344 z" sodipodi:nodetypes="ccccccccccccccccccc" /><path id="path785" style="font-weight:normal;font-size:96px;line-height:125%;font-family:'Flipside BRK';-inkscape-font-specification:'Flipside BRK, Normal';text-align:center;letter-spacing:0px;word-spacing:0px;text-anchor:middle;white-space:pre;fill:#e6e6e6;stroke-width:0.264583px;image-rendering:crisp-edges" d="m 175.18945,143.99414 c 2.356,0.31692 4.58273,2.08842 4.93309,4.52204 c 0.55543,2.52336 -0.33786,5.56965 -2.77354,6.77842 c -0.67163,0.36703 -1.40853,0.60526 -2.15955,0.74446 c 0,0.99089 0,1.98177 0,2.97266 c 3.05705,-0.36938 6.22001,-2.07619 7.34327,-5.09021 c 0.31575,-0.78387 0.47054,-1.61812 0.64697,-2.44104 c 0.86393,0 1.72786,0 2.59179,0 c 0,-0.98698 0,-1.97396 0,-2.96094 c -0.86849,0 -1.73697,0 -2.60546,0 c -0.2336,-1.75779 -0.87396,-3.41329 -2.10351,-4.75912 c -1.501,-1.64732 -3.71505,-2.44215 -5.87306,-2.76041 c 0,0.99805 0,1.99609 0,2.99414 z" /></g></g><metadata id="metadata977"><rdf:RDF><cc:Work rdf:about=""><cc:license rdf:resource="http://creativecommons.org/licenses/by-sa/4.0/" /><dc:creator><cc:Agent><dc:title>Peter Nilsso</dc:title></cc:Agent></dc:creator></cc:Work><cc:License rdf:about="http://creativecommons.org/licenses/by-sa/4.0/"><cc:permits rdf:resource="http://creativecommons.org/ns#Reproduction" /><cc:permits rdf:resource="http://creativecommons.org/ns#Distribution" /><cc:requires rdf:resource="http://creativecommons.org/ns#Notice" /><cc:requires rdf:resource="http://creativecommons.org/ns#Attribution" /><cc:permits rdf:resource="http://creativecommons.org/ns#DerivativeWorks" /><cc:requires rdf:resource="http://creativecommons.org/ns#ShareAlike" /></cc:License></rdf:RDF></metadata></svg>
